<?xml version="1.0" encoding="UTF-8"?>
<!DOCTYPE svg PUBLIC "-//W3C//DTD SVG 1.1//EN" "http://www.w3.org/Graphics/SVG/1.1/DTD/svg11.dtd">
<svg xmlns="http://www.w3.org/2000/svg" version="1.1" width="73px" height="50px" style="shape-rendering:geometricPrecision; text-rendering:geometricPrecision; image-rendering:optimizeQuality; fill-rule:evenodd; clip-rule:evenodd" xmlns:xlink="http://www.w3.org/1999/xlink">
<g><path style="opacity:0.808" fill="#ee1f50" d="M 35.5,-0.5 C 38.5,-0.5 41.5,-0.5 44.5,-0.5C 44.5,0.166667 44.8333,0.5 45.5,0.5C 45.5,2.83333 45.5,5.16667 45.5,7.5C 42.198,6.70627 38.8647,6.0396 35.5,5.5C 35.5,3.5 35.5,1.5 35.5,-0.5 Z"/></g>
<g><path style="opacity:0.839" fill="#221f1f" d="M 45.5,0.5 C 49.0593,0.959289 52.0593,2.45929 54.5,5C 52.7782,10.1688 49.7782,11.0022 45.5,7.5C 45.5,5.16667 45.5,2.83333 45.5,0.5 Z"/></g>
<g><path style="opacity:0.782" fill="#211f1f" d="M 10.5,18.5 C 10.5,15.5 10.5,12.5 10.5,9.5C 12.5755,7.28118 14.9088,5.28118 17.5,3.5C 18.8333,5.5 20.1667,7.5 21.5,9.5C 17.5301,12.1373 13.8634,15.1373 10.5,18.5 Z"/></g>
<g><path style="opacity:0.874" fill="#ee1f50" d="M 63.5,12.5 C 63.5,15.8333 63.5,19.1667 63.5,22.5C 60.9278,18.2555 57.5945,14.5888 53.5,11.5C 54.604,9.61145 55.9373,7.94478 57.5,6.5C 60.0836,8.08415 62.0836,10.0842 63.5,12.5 Z"/></g>
<g><path style="opacity:0.844" fill="#1f1f1e" d="M 27.5,17.5 C 27.5,15.1667 27.5,12.8333 27.5,10.5C 30.1368,9.83592 32.8035,9.16925 35.5,8.5C 36.4742,10.7427 36.8076,13.076 36.5,15.5C 33.4173,15.916 30.4173,16.5826 27.5,17.5 Z"/></g>
<g><path style="opacity:0.857" fill="#e81f4f" d="M 51.5,14.5 C 51.5,17.1667 51.5,19.8333 51.5,22.5C 48.0267,18.7065 43.6933,16.7065 38.5,16.5C 38.9926,14.1944 39.3259,11.861 39.5,9.5C 44.2321,9.62682 48.2321,11.2935 51.5,14.5 Z"/></g>
<g><path style="opacity:0.828" fill="#ed1f50" d="M 10.5,9.5 C 10.5,12.5 10.5,15.5 10.5,18.5C 8.58153,22.6813 6.91486,27.0147 5.5,31.5C 3.60395,32.4656 1.60395,32.7989 -0.5,32.5C -0.5,30.5 -0.5,28.5 -0.5,26.5C 1.39776,19.7083 5.06443,14.0417 10.5,9.5 Z"/></g>
<g><path style="opacity:0.795" fill="#e71f4f" d="M 27.5,10.5 C 27.5,12.8333 27.5,15.1667 27.5,17.5C 25.2459,18.4151 23.2459,19.7484 21.5,21.5C 19.6634,20.1621 17.9967,18.6621 16.5,17C 19.5335,13.8145 23.2002,11.6479 27.5,10.5 Z"/></g>
<g><path style="opacity:0.818" fill="#211f1f" d="M 63.5,12.5 C 68.0669,16.9688 71.0669,22.3021 72.5,28.5C 72.5,31.1667 72.5,33.8333 72.5,36.5C 70.1667,36.5 67.8333,36.5 65.5,36.5C 65.6502,31.6993 64.9835,27.0327 63.5,22.5C 63.5,19.1667 63.5,15.8333 63.5,12.5 Z"/></g>
<g><path style="opacity:0.856" fill="#211f1f" d="M 51.5,14.5 C 59.3439,19.6737 63.0105,27.007 62.5,36.5C 60.1667,36.5 57.8333,36.5 55.5,36.5C 55.908,31.3213 54.5746,26.6546 51.5,22.5C 51.5,19.8333 51.5,17.1667 51.5,14.5 Z"/></g>
<g><path style="opacity:0.826" fill="#ee1f50" d="M 36.5,18.5 C 36.5,20.8333 36.5,23.1667 36.5,25.5C 34.4357,25.687 32.4357,26.187 30.5,27C 28.6239,29.046 26.6239,30.8793 24.5,32.5C 22.6698,32.2237 21.0032,31.557 19.5,30.5C 22.8816,23.3056 28.5483,19.3056 36.5,18.5 Z"/></g>
<g><path style="opacity:0.863" fill="#241f20" d="M 36.5,18.5 C 46.483,20.4776 51.8164,26.4776 52.5,36.5C 50.1667,36.5 47.8333,36.5 45.5,36.5C 45.813,30.1446 42.813,26.4779 36.5,25.5C 36.5,23.1667 36.5,20.8333 36.5,18.5 Z"/></g>
<g><path style="opacity:0.627" fill="#221f1f" d="M 23.5,49.5 C 20.5,49.5 17.5,49.5 14.5,49.5C 12.9982,46.9781 11.6649,46.9781 10.5,49.5C 7.16667,49.5 3.83333,49.5 0.5,49.5C 0.5,45.8333 0.5,42.1667 0.5,38.5C 1.5,38.5 2.5,38.5 3.5,38.5C 3.5,41.5 3.5,44.5 3.5,47.5C 5.16667,47.5 6.83333,47.5 8.5,47.5C 9.00842,44.1485 10.3418,41.1485 12.5,38.5C 14.2831,41.6732 15.7831,45.0065 17,48.5C 17.9525,46.4078 19.2859,46.0745 21,47.5C 20.4097,45.1857 19.243,43.0191 17.5,41C 17.6448,40.228 17.9781,39.5613 18.5,39C 20.1341,38.5065 21.8008,38.3398 23.5,38.5C 23.719,39.675 23.3857,40.675 22.5,41.5C 21.6043,40.4937 20.9377,40.4937 20.5,41.5C 24.2574,43.2204 25.2574,45.8871 23.5,49.5 Z"/></g>
<g><path style="opacity:0.722" fill="#292020" d="M 32.5,38.5 C 32.5,39.5 32.5,40.5 32.5,41.5C 32.1667,41.5 31.8333,41.5 31.5,41.5C 29.631,43.6353 28.9644,46.3019 29.5,49.5C 28.8333,49.5 28.1667,49.5 27.5,49.5C 27.5,46.8333 27.5,44.1667 27.5,41.5C 26.5,41.5 25.5,41.5 24.5,41.5C 24.5,40.5 24.5,39.5 24.5,38.5C 27.1667,38.5 29.8333,38.5 32.5,38.5 Z"/></g>
<g><path style="opacity:0.634" fill="#ed1f50" d="M 32.5,38.5 C 33.7498,38.5774 34.5831,39.244 35,40.5C 40.1611,37.0572 43.6611,38.2239 45.5,44C 45.2421,46.0093 44.5755,47.8427 43.5,49.5C 41.1667,49.5 38.8333,49.5 36.5,49.5C 35.8783,48.3734 35.045,47.3734 34,46.5C 33.2797,44.8876 33.4464,43.3876 34.5,42C 33.9056,41.5357 33.2389,41.369 32.5,41.5C 32.5,40.5 32.5,39.5 32.5,38.5 Z M 37.5,41.5 C 42.1585,41.0146 43.4919,42.848 41.5,47C 37.2662,47.267 35.9329,45.4336 37.5,41.5 Z"/></g>
<g><path style="opacity:0.664" fill="#ed1f50" d="M 64.5,49.5 C 63.5,49.5 62.5,49.5 61.5,49.5C 60.3351,46.9781 59.0018,46.9781 57.5,49.5C 56.5,49.5 55.5,49.5 54.5,49.5C 54.5,49.1667 54.5,48.8333 54.5,48.5C 55.3382,48.1583 55.6716,47.4916 55.5,46.5C 56.7918,43.9163 58.1252,41.2497 59.5,38.5C 62.1196,41.6747 63.7862,45.3414 64.5,49.5 Z"/></g>
<g><path style="opacity:0.596" fill="#ed1f50" d="M 72.5,38.5 C 72.5,39.1667 72.5,39.8333 72.5,40.5C 69.925,42.8453 68.925,45.8453 69.5,49.5C 68.5,49.5 67.5,49.5 66.5,49.5C 67.2039,45.2057 65.8705,41.7057 62.5,39C 62.6667,38.5 62.8333,38 63,37.5C 64.9552,38.4533 66.6218,39.7866 68,41.5C 68.9078,39.5614 70.4078,38.5614 72.5,38.5 Z"/></g>
<g><path style="opacity:0.66" fill="#ed1f50" d="M 55.5,46.5 C 54.6618,46.8417 54.3284,47.5084 54.5,48.5C 53.8333,48.5 53.5,48.8333 53.5,49.5C 51.1667,49.5 48.8333,49.5 46.5,49.5C 46.5,45.8333 46.5,42.1667 46.5,38.5C 52.6749,37.6775 55.6749,40.3441 55.5,46.5 Z M 49.5,41.5 C 51.4841,41.484 52.4841,42.484 52.5,44.5C 52.5472,46.0004 51.8805,47.0004 50.5,47.5C 49.5344,45.604 49.2011,43.604 49.5,41.5 Z"/></g>
<g><path style="opacity:0.936" fill="#fb1f55" d="M 31.5,41.5 C 31.5,44.1667 31.5,46.8333 31.5,49.5C 30.8333,49.5 30.1667,49.5 29.5,49.5C 28.9644,46.3019 29.631,43.6353 31.5,41.5 Z"/></g>
</svg>
