<svg id="Background_Complete" data-name="Background Complete" xmlns="http://www.w3.org/2000/svg" viewBox="0 0 410.7 415.68"><defs><style>.cls-1{fill:none;}.cls-2,.cls-3{fill:#e0e0e0;}.cls-3,.cls-4,.cls-5{fill-rule:evenodd;}.cls-4,.cls-6{fill:#ebebeb;}.cls-5,.cls-7{fill:#f5f5f5;}</style></defs><path class="cls-1" d="M373.23,244a21.78,21.78,0,0,1,2.12-5.37l-2.92-4.47,6.15-6.36,4.57,2.78a21.6,21.6,0,0,1,5.3-2.3l1.09-5.23,8.85-.15,1.27,5.2a21.78,21.78,0,0,1,5.37,2.12l4.47-2.93,6.36,6.16L413.08,238a21.53,21.53,0,0,1,2.3,5.29l5.23,1.1.15,8.85-5.2,1.27a21.87,21.87,0,0,1-2.12,5.36l2.93,4.48-6.16,6.36L405.64,268a21.91,21.91,0,0,1-5.29,2.3l-1.1,5.23-8.85.14-1.27-5.19a21.87,21.87,0,0,1-5.36-2.12l-4.48,2.92-6.36-6.15,2.78-4.57a22,22,0,0,1-2.3-5.3l-5.23-1.09-.14-8.85,5.19-1.27Zm11.67,5a9.49,9.49,0,1,0,9.34-9.65A9.48,9.48,0,0,0,384.9,249Z" transform="translate(-46.26 -59.85)"/><path class="cls-2" d="M384.9,249a7.24,7.24,0,0,1,.16-2.35,9.57,9.57,0,0,1,7.38-7.32,9.8,9.8,0,0,1,5.12.31,9.78,9.78,0,0,1,4.59,3.31,9.7,9.7,0,0,1,.19,11.52,9.05,9.05,0,0,1-2,2.1,9.19,9.19,0,0,1-2.44,1.36,9.75,9.75,0,0,1-5.11.48,9.6,9.6,0,0,1-7.62-7.08,7.32,7.32,0,0,1-.23-2.33,21.12,21.12,0,0,0,.43,2.28,9.5,9.5,0,0,0,3.55,5.05,9.28,9.28,0,0,0,8.8,1.15,8.88,8.88,0,0,0,2.32-1.3,8.7,8.7,0,0,0,1.92-2,9.22,9.22,0,0,0-.18-10.92,8.88,8.88,0,0,0-2-1.94,8.69,8.69,0,0,0-2.36-1.22,9.29,9.29,0,0,0-4.87-.34,9.12,9.12,0,0,0-3.89,1.77,9.45,9.45,0,0,0-3.38,5.17A19.37,19.37,0,0,0,384.9,249Z" transform="translate(-46.26 -59.85)"/><path class="cls-2" d="M373.23,244a1.31,1.31,0,0,1-.32.1l-1,.26-3.87,1,.06-.08c.05,2.26.11,5.24.19,8.84l-.1-.12,5.24,1.07.09,0,0,.09a21.81,21.81,0,0,0,2.3,5.25l.05.09-.05.08-2.77,4.58,0-.23,6.37,6.15-.25,0,4.47-2.93.11-.08.11.07a22.18,22.18,0,0,0,5.32,2.09l.13,0,0,.14c.4,1.61.83,3.38,1.28,5.19l-.23-.18,8.85-.15-.24.19c.34-1.63.72-3.42,1.09-5.24l0-.14.15,0a21.48,21.48,0,0,0,5.23-2.28l.13-.08.13.08,4.57,2.78-.31,0,6.15-6.36,0,.32-2.93-4.48-.08-.13.07-.14a21.33,21.33,0,0,0,2.1-5.29h0l0-.15.15,0,5.2-1.26-.2.25c-.05-3-.1-5.94-.14-8.85l.2.25-5.23-1.1-.15,0-.05-.15a21.38,21.38,0,0,0-2.26-5.23l-.08-.13.08-.13,2.78-4.57,0,.31-6.35-6.16.29,0-4.48,2.93-.12.07-.12-.07a21.53,21.53,0,0,0-5.3-2.1l-.14,0,0-.13-1.26-5.2.22.17-8.85.13.19-.16c-.39,1.84-.76,3.56-1.11,5.23l0,.11-.11,0a21.68,21.68,0,0,0-5.26,2.26l-.09.06-.09-.06L378.5,228l.19,0-6.18,6.34,0-.15,2.89,4.5,0,0,0,0a22.2,22.2,0,0,0-1.77,4c-.14.44-.24.78-.32,1s-.11.34-.11.34,0-.12.07-.35.14-.58.28-1a20.87,20.87,0,0,1,1.7-4v.09c-.8-1.22-1.77-2.68-2.95-4.46l-.05-.08.06-.06,6.13-6.39.09-.09.1.07,4.58,2.76h-.17a21.58,21.58,0,0,1,5.33-2.33l-.14.14c.35-1.66.71-3.39,1.09-5.23l0-.16h.16l8.85-.16h.17l0,.17c.42,1.69.84,3.41,1.28,5.19l-.17-.16a21.76,21.76,0,0,1,5.43,2.14h-.24l4.47-2.94.16-.1.14.13,6.37,6.15.14.14-.11.17-2.77,4.57v-.26a21.86,21.86,0,0,1,2.33,5.35l-.2-.18,5.24,1.1.2,0v.21q.08,4.37.15,8.84v.21l-.2.05-5.2,1.27.2-.19h0a22.28,22.28,0,0,1-2.14,5.43v-.27l2.92,4.48.12.17-.15.15-6.16,6.36-.14.14-.17-.1-4.57-2.79h.26a21.55,21.55,0,0,1-5.36,2.32l.18-.18c-.38,1.81-.76,3.6-1.1,5.23l0,.19h-.2l-8.85.14h-.18l0-.18-1.26-5.2.16.17a22.31,22.31,0,0,1-5.42-2.16h.23l-4.49,2.91-.13.09-.12-.11-6.35-6.17-.1-.1.07-.13,2.79-4.56v.17a21.94,21.94,0,0,1-2.29-5.34l.11.11-5.23-1.11-.1,0v-.1c0-3.61-.07-6.59-.1-8.85v-.07H368l3.86-.9,1-.22Z" transform="translate(-46.26 -59.85)"/><path class="cls-3" d="M114.41,219.61a24.61,24.61,0,0,1,2.37-6l-3.27-5,6.88-7.11,5.12,3.11a24.46,24.46,0,0,1,5.92-2.57l1.22-5.85,9.9-.16,1.42,5.81a24.21,24.21,0,0,1,6,2.37l5-3.27,7.11,6.88L159,212.93a24.29,24.29,0,0,1,2.57,5.92l5.85,1.22.16,9.9-5.81,1.42a24.21,24.21,0,0,1-2.37,6l3.27,5-6.88,7.11-5.12-3.11a24.29,24.29,0,0,1-5.92,2.57l-1.22,5.85-9.9.16-1.42-5.81a24.21,24.21,0,0,1-6-2.37l-5,3.27-7.11-6.88,3.11-5.12a24.46,24.46,0,0,1-2.57-5.92l-5.85-1.22-.16-9.9,5.81-1.42Zm13,5.61a10.62,10.62,0,1,0,10.44-10.79A10.62,10.62,0,0,0,127.46,225.22Z" transform="translate(-46.26 -59.85)"/><path class="cls-3" d="M342.47,194a7,7,0,0,1,.68-1.73l-.94-1.45,2-2.05,1.47.9a7.28,7.28,0,0,1,1.71-.75l.35-1.69,2.86,0,.41,1.67a7.27,7.27,0,0,1,1.73.69l1.45-.94,2.05,2-.89,1.48a7.25,7.25,0,0,1,.74,1.71l1.69.35,0,2.86-1.67.41a7.44,7.44,0,0,1-.69,1.73l.95,1.45-2,2-1.48-.9a6.86,6.86,0,0,1-1.71.74l-.35,1.69-2.86.05-.41-1.68a7,7,0,0,1-1.73-.68l-1.45.94-2.05-2,.9-1.48a6.86,6.86,0,0,1-.74-1.71l-1.69-.35,0-2.86,1.68-.41Zm3.76,1.62a3.07,3.07,0,1,0,3-3.12A3.07,3.07,0,0,0,346.23,195.66Z" transform="translate(-46.26 -59.85)"/><path class="cls-4" d="M48.58,223.62a9.94,9.94,0,0,1,1-2.39l-1.31-2L51,216.38l2,1.24a9.36,9.36,0,0,1,2.36-1l.49-2.34,4-.07.57,2.32a10.37,10.37,0,0,1,2.39,1l2-1.3,2.84,2.75-1.24,2a9.81,9.81,0,0,1,1,2.37l2.34.49.07,3.95-2.33.57a10,10,0,0,1-.94,2.4l1.3,2-2.75,2.84-2-1.24a9.43,9.43,0,0,1-2.37,1l-.49,2.34-4,.07-.57-2.32a10,10,0,0,1-2.4-.95l-2,1.31L48.45,233l1.24-2a9.28,9.28,0,0,1-1-2.37l-2.34-.49-.07-3.95,2.32-.57Zm5.22,2.24A4.24,4.24,0,1,0,58,221.55,4.24,4.24,0,0,0,53.8,225.86Z" transform="translate(-46.26 -59.85)"/><path class="cls-4" d="M408.34,159.92a22.21,22.21,0,0,1,2.17-5.49l-3-4.58,6.3-6.51,4.67,2.84a22.38,22.38,0,0,1,5.42-2.34l1.12-5.36,9.05-.15,1.3,5.32a22.37,22.37,0,0,1,5.49,2.17l4.58-3,6.5,6.29-2.84,4.68a22,22,0,0,1,2.35,5.41l5.36,1.13.14,9-5.31,1.29a22.06,22.06,0,0,1-2.17,5.49l3,4.58-6.3,6.51-4.67-2.84a22.4,22.4,0,0,1-5.42,2.35L435,192.12l-9,.15-1.3-5.32a22,22,0,0,1-5.49-2.17l-4.58,3-6.5-6.3,2.84-4.68a22,22,0,0,1-2.35-5.41l-5.35-1.12-.15-9.06,5.31-1.29Zm11.94,5.13a9.71,9.71,0,1,0,9.55-9.87A9.7,9.7,0,0,0,420.28,165.05Z" transform="translate(-46.26 -59.85)"/><path class="cls-5" d="M62.94,310.83a19.9,19.9,0,0,1,2-5l-2.71-4.15,5.7-5.89,4.23,2.58a19.83,19.83,0,0,1,4.9-2.13l1-4.85,8.19-.13,1.18,4.81a20.21,20.21,0,0,1,5,2l4.14-2.71,5.89,5.7-2.57,4.23a20.18,20.18,0,0,1,2.12,4.9l4.85,1,.14,8.19-4.82,1.18a20.19,20.19,0,0,1-2,5l2.71,4.14-5.7,5.89L93,333a20.26,20.26,0,0,1-4.9,2.13L87,340l-8.2.14-1.17-4.81a20.29,20.29,0,0,1-5-2l-4.15,2.71-5.89-5.7,2.58-4.24a19.51,19.51,0,0,1-2.13-4.9l-4.85-1-.13-8.2,4.81-1.17Zm10.8,4.64a8.8,8.8,0,1,0,8.65-8.93A8.79,8.79,0,0,0,73.74,315.47Z" transform="translate(-46.26 -59.85)"/><path class="cls-5" d="M234.89,141.28a9.07,9.07,0,0,1,.85-2.17l-1.18-1.8,2.49-2.57,1.84,1.12a8.8,8.8,0,0,1,2.13-.92l.45-2.11,3.56-.06.51,2.09a8.55,8.55,0,0,1,2.17.86l1.8-1.18,2.57,2.48L251,138.87a8.42,8.42,0,0,1,.92,2.13l2.11.44.06,3.57-2.09.51a8.7,8.7,0,0,1-.86,2.17l1.18,1.8-2.48,2.57L248,150.94a8.87,8.87,0,0,1-2.14.92l-.44,2.11-3.57.06-.51-2.09a8.48,8.48,0,0,1-2.16-.86l-1.81,1.18-2.56-2.48,1.12-1.85a8.82,8.82,0,0,1-.93-2.13l-2.11-.44-.06-3.57,2.1-.51Zm4.7,2a3.83,3.83,0,1,0,3.77-3.89A3.84,3.84,0,0,0,239.59,143.3Z" transform="translate(-46.26 -59.85)"/><path class="cls-6" d="M420,390.92c4.5-2.32,9.79-2.62,14.78-1.8,2.69.45,5.48,1.25,7.31,3.26s2.17,5.56.07,7.29a6.91,6.91,0,0,1-4.6,1.17c-3.91,0-8.25-.73-11.37,1.62-1.78,1.34-3,3.57-5.1,4.23a5,5,0,0,1-5.54-2.46,8.6,8.6,0,0,1-.62-6.35A9.7,9.7,0,0,1,420,390.92Z" transform="translate(-46.26 -59.85)"/><path class="cls-6" d="M409.66,371c2.75,3.93,8.09,2.63,10.57.23s3.52-5.87,4.48-9.18c2.18-7.57,4.37-15.52,2.75-23.23a12.86,12.86,0,0,0-3-6.31,6.72,6.72,0,0,0-6.39-2.12c-2.69.71-4.37,3.35-5.58,5.86A55.35,55.35,0,0,0,407.06,360c0,3.83.44,7.84,2.6,11" transform="translate(-46.26 -59.85)"/><path class="cls-6" d="M402.11,376.67c3-3.55,3.55-8.72,2.22-13.16s-4.33-8.21-7.79-11.29a41.81,41.81,0,0,0-14-8.23,14.87,14.87,0,0,0-6.27-1.07,6.55,6.55,0,0,0-5.26,3.19c-1.47,2.8-.07,6.19,1.46,9A106.42,106.42,0,0,0,381.68,369c2.74,3.54,5.89,7,10.07,8.63s8.54,1.42,10.75-1.49" transform="translate(-46.26 -59.85)"/><path class="cls-2" d="M409.47,430.28a8.48,8.48,0,0,0,.25-1.79c.13-1.3.28-2.93.47-4.87a70.83,70.83,0,0,1,1.1-7.14,54.77,54.77,0,0,1,2.6-8.44,31.09,31.09,0,0,1,4.3-7.62,16,16,0,0,1,5.44-4.53,15.56,15.56,0,0,1,4.59-1.43,8.61,8.61,0,0,0,1.78-.25,7.68,7.68,0,0,0-1.81,0,14,14,0,0,0-4.78,1.24,16,16,0,0,0-5.74,4.57,30,30,0,0,0-4.47,7.78,52.18,52.18,0,0,0-2.58,8.57,62.27,62.27,0,0,0-.95,7.23c-.15,2.07-.21,3.75-.24,4.9A8.89,8.89,0,0,0,409.47,430.28Z" transform="translate(-46.26 -59.85)"/><path class="cls-2" d="M409.81,426.53a3.84,3.84,0,0,0,0-.83v-2.37c0-2.05,0-5,.1-8.7.19-7.34.82-15.25,2-26.39,1.16-10.48,2.71-22.68,4.35-30.61.35-1.8.7-3.42,1-4.84s.59-2.66.86-3.65.4-1.7.55-2.3a2.94,2.94,0,0,0,.14-.82,4,4,0,0,0-.28.78l-.69,2.27c-.31,1-.62,2.2-1,3.62s-.76,3-1.14,4.83a268.55,268.55,0,0,0-4.57,28.4c-1.23,11.17-1.78,21.34-1.83,28.7,0,3.68,0,6.66.13,8.72.06,1,.11,1.74.15,2.37A3.14,3.14,0,0,0,409.81,426.53Z" transform="translate(-46.26 -59.85)"/><path class="cls-2" d="M409.86,406.92a16.24,16.24,0,0,0,0-2.48c-.09-1.59-.31-3.88-.76-6.7A87.45,87.45,0,0,0,406.9,388a79.53,79.53,0,0,0-4.08-11.56,61.73,61.73,0,0,0-12-18.67,30.88,30.88,0,0,0-2.82-2.62c-.44-.37-.82-.73-1.21-1l-1.09-.76a15.66,15.66,0,0,0-2.09-1.33c-.11.16,2.95,2,6.83,6.09a64.87,64.87,0,0,1,11.69,18.6,91.53,91.53,0,0,1,4.11,11.45c1.07,3.59,1.78,6.89,2.32,9.67s.8,5.06,1,6.64A14.61,14.61,0,0,0,409.86,406.92Z" transform="translate(-46.26 -59.85)"/><polygon class="cls-2" points="344.64 381.67 346.6 408.59 381.19 408.59 383.16 381.67 344.64 381.67"/><rect class="cls-2" x="341.3" y="371.05" width="45.98" height="10.61"/><polygon class="cls-6" points="341.3 407.56 341.3 410.5 343.46 410.5 386.52 410.5 386.52 407.56 341.3 407.56"/><polygon class="cls-2" points="345.58 415.68 343.46 410.5 384.88 410.5 382.4 415.68 345.58 415.68"/><path class="cls-7" d="M428.77,450.31s0,.09-.16.25l-.51.68-2,2.58-.09.12-.08-.12L421,447h.28l-4.87,6.9-.16.22-.17-.21L410.26,447h.34l-.32.4-5.17,6.48-.17.22-.16-.23L399.9,447l.29,0c-2.41,2.73-4.44,5.06-6,6.84l-.1.12-.09-.14-1.88-3.16-.48-.84a1.64,1.64,0,0,1-.15-.3,1.92,1.92,0,0,1,.21.27l.53.81,2,3.1H394c1.53-1.81,3.54-4.16,5.9-6.93l.15-.17.14.18,4.92,6.87h-.33l5.15-6.49.32-.4.16-.2.17.2,5.77,6.89H416l4.93-6.86.14-.2.14.2,4.85,6.92h-.18c.88-1.06,1.58-1.9,2.1-2.51l.56-.65Z" transform="translate(-46.26 -59.85)"/><path class="cls-7" d="M429.9,441.33c0,.12-8.67.22-19.36.22s-19.35-.1-19.35-.22,8.66-.21,19.35-.21S429.9,441.21,429.9,441.33Z" transform="translate(-46.26 -59.85)"/><path class="cls-7" d="M431.65,470.63c0,.12-9.42.22-21,.22s-21-.1-21-.22,9.42-.21,21-.21S431.65,470.52,431.65,470.63Z" transform="translate(-46.26 -59.85)"/><path class="cls-6" d="M67.42,169.17a10.87,10.87,0,0,1,1.79,0c.58,0,1.29,0,2.1.06s1.76.09,2.78.22a64.67,64.67,0,0,1,7.17,1.13A71.67,71.67,0,0,1,89.8,173a72,72,0,0,1,8.12,3.61,62.75,62.75,0,0,1,6.21,3.76c.87.56,1.6,1.14,2.27,1.62s1.21.93,1.65,1.31a12.38,12.38,0,0,1,1.34,1.19,10.53,10.53,0,0,1-1.47-1c-.46-.35-1-.77-1.7-1.23s-1.42-1-2.29-1.56c-1.71-1.13-3.83-2.37-6.23-3.63a76.93,76.93,0,0,0-8.08-3.55,77.6,77.6,0,0,0-8.46-2.5,72.05,72.05,0,0,0-7.11-1.24c-1-.15-1.94-.2-2.76-.29s-1.51-.12-2.09-.15A11.41,11.41,0,0,1,67.42,169.17Z" transform="translate(-46.26 -59.85)"/><path class="cls-6" d="M48.89,280.58a3.13,3.13,0,0,1,.54-.46l1.6-1.21c.69-.53,1.56-1.17,2.6-1.85s2.19-1.5,3.54-2.29,2.79-1.71,4.42-2.57,3.37-1.76,5.23-2.67a109,109,0,0,1,12.52-4.92,110.78,110.78,0,0,1,13.07-3.19c2-.32,4-.66,5.82-.83s3.53-.36,5.09-.45,3-.13,4.22-.16,2.31,0,3.18,0l2,.07a3.2,3.2,0,0,1,.7.06,3.45,3.45,0,0,1-.7,0l-2,0c-.87,0-1.94,0-3.18.08s-2.64.08-4.19.24-3.26.25-5.07.51-3.75.54-5.78.87a114.31,114.31,0,0,0-13,3.22A115.86,115.86,0,0,0,67,270c-1.85.9-3.62,1.73-5.22,2.62s-3.1,1.71-4.44,2.5-2.52,1.57-3.57,2.23-1.93,1.26-2.64,1.76l-1.66,1.14A4.71,4.71,0,0,1,48.89,280.58Z" transform="translate(-46.26 -59.85)"/><path class="cls-6" d="M120.76,334.33a2.15,2.15,0,0,1,.07-.54l.3-1.54c.13-.66.31-1.47.55-2.4s.48-2,.83-3.17c.65-2.34,1.54-5.08,2.67-8.09s2.53-6.24,4.18-9.56,3.44-6.36,5.15-9.08,3.4-5.06,4.89-7c.72-1,1.43-1.81,2-2.56s1.14-1.37,1.6-1.88l1-1.16c.25-.26.38-.39.4-.38a2.17,2.17,0,0,1-.32.45c-.25.33-.58.73-1,1.22s-.95,1.17-1.53,1.94-1.27,1.61-2,2.6c-1.44,1.93-3.06,4.31-4.77,7s-3.43,5.76-5.09,9.06-3,6.52-4.21,9.49-2.07,5.71-2.76,8c-.37,1.16-.64,2.22-.9,3.14s-.47,1.72-.63,2.38-.29,1.11-.4,1.51A2.61,2.61,0,0,1,120.76,334.33Z" transform="translate(-46.26 -59.85)"/><path class="cls-6" d="M256.62,59.85a4,4,0,0,1-.39.6L255,62.14c-.53.72-1.17,1.61-1.87,2.67s-1.55,2.24-2.39,3.6S249,71.24,248,72.87s-1.93,3.39-2.95,5.24c-2,3.75-4,8-5.83,12.47s-3.32,8.94-4.53,13c-.56,2-1.13,4-1.55,5.81s-.82,3.54-1.15,5.11-.57,3-.8,4.24-.4,2.34-.52,3.23-.24,1.52-.32,2a3.25,3.25,0,0,1-.15.7,3.9,3.9,0,0,1,0-.72c.06-.52.13-1.2.23-2s.22-2,.44-3.24.39-2.7.72-4.27.64-3.31,1.09-5.14,1-3.79,1.51-5.84c1.19-4.08,2.67-8.52,4.5-13.07s3.9-8.75,5.9-12.49c1-1.86,2-3.63,3-5.24s1.92-3.1,2.8-4.44,1.73-2.52,2.46-3.56,1.39-1.93,2-2.63.95-1.22,1.28-1.63A2.87,2.87,0,0,1,256.62,59.85Z" transform="translate(-46.26 -59.85)"/><path class="cls-6" d="M346.65,163.74a2.88,2.88,0,0,1-.6.11l-1.73.23-1.25.15c-.46.07-.95.18-1.47.27-1.06.22-2.27.39-3.57.77l-2,.53c-.72.19-1.44.46-2.19.7-1.53.46-3.09,1.14-4.74,1.81a57.83,57.83,0,0,0-18.89,13.27c-1.19,1.33-2.36,2.57-3.3,3.85-.48.63-1,1.21-1.41,1.81L304.26,189c-.8,1.09-1.37,2.18-1.93,3.09-.27.47-.54.89-.76,1.3l-.56,1.12-.8,1.55a2.44,2.44,0,0,1-.32.53,3.28,3.28,0,0,1,.22-.57c.19-.42.42-1,.72-1.6l.52-1.15c.21-.41.47-.84.73-1.32a36.3,36.3,0,0,1,1.87-3.16l1.18-1.78c.41-.62.91-1.21,1.39-1.85.94-1.3,2.1-2.56,3.29-3.91a56.24,56.24,0,0,1,19.05-13.38c1.67-.66,3.25-1.33,4.79-1.78.77-.23,1.5-.5,2.22-.68l2.07-.5a34.58,34.58,0,0,1,3.61-.69c.53-.09,1-.18,1.49-.23l1.26-.11,1.74-.13A2.18,2.18,0,0,1,346.65,163.74Z" transform="translate(-46.26 -59.85)"/><path class="cls-6" d="M420.18,223.25l-.26-.08-.75-.25-2.87-1-2.07-.76c-.76-.26-1.6-.51-2.5-.8-1.79-.56-3.81-1.27-6.11-1.85l-3.58-1c-1.25-.34-2.57-.6-3.92-.92-2.7-.67-5.64-1.16-8.71-1.72a150.92,150.92,0,0,0-40.57-1.24c-3.1.37-6.06.68-8.8,1.18-1.37.24-2.7.42-4,.68l-3.63.75c-2.33.44-4.39,1-6.22,1.48-.91.23-1.76.43-2.53.64l-2.12.63-2.92.86-.77.21a1,1,0,0,1-.27,0l.25-.1.75-.26,2.9-1,2.11-.67c.77-.23,1.62-.45,2.53-.7,1.82-.47,3.88-1.08,6.21-1.55l3.64-.79c1.26-.27,2.6-.46,4-.7,2.75-.53,5.71-.85,8.82-1.24a147.09,147.09,0,0,1,40.7,1.25c3.08.58,6,1.08,8.72,1.77,1.36.33,2.68.6,3.93,1l3.58,1c2.3.61,4.31,1.35,6.1,1.93.9.3,1.73.57,2.49.85l2.06.8,2.84,1.12.73.31C420.1,223.2,420.19,223.24,420.18,223.25Z" transform="translate(-46.26 -59.85)"/></svg>