<?xml version="1.0" encoding="utf-8"?>
<!-- Generator: Adobe Illustrator 25.4.1, SVG Export Plug-In . SVG Version: 6.00 Build 0)  -->
<svg version="1.1" id="Layer_1" xmlns="http://www.w3.org/2000/svg" xmlns:xlink="http://www.w3.org/1999/xlink" x="0px" y="0px"
	 viewBox="0 0 256 256" style="enable-background:new 0 0 256 256;" xml:space="preserve">
<style type="text/css">
	.st0{fill:none;}
	.st1{opacity:0.2;fill:#ED2252;enable-background:new    ;}
	.st2{fill:none;stroke:#000000;stroke-width:16;stroke-linecap:round;stroke-linejoin:round;}
</style>
<rect y="0" class="st0" width="256" height="256"/>
<path class="st1" d="M130.2,224c35.8-0.9,68.1-21.5,84-53.6l0,0L159.9,137c-0.9-0.6-2-1-3.1-1.1l-22.9-3.1c-3.5-0.5-6.9,1.4-8.3,4.7
	l-13.7,30.7c-1.3,2.9-0.8,6.3,1.4,8.7l18.8,20.3c1.7,1.9,2.5,4.5,2,7L130.2,224z"/>
<path class="st1" d="M65,55.6l-9,21.2c-0.8,1.9-0.8,4-0.1,5.9l11.5,30.6c0.9,2.6,3.1,4.5,5.8,5.1l5.4,1.1l8.3-19.7
	c1.3-3,4.2-4.9,7.4-4.9h21.4c1.3,0,2.6-0.4,3.8-1l12.3-6.8c0.5-0.3,1-0.7,1.5-1.1l26.9-24.3c2.7-2.5,3.4-6.6,1.6-9.8l-9.3-16.8l0,0
	c-8-2.1-16.2-3.1-24.5-3.1C104.8,32,82.4,40.3,65,55.6z"/>
<circle class="st2" cx="128" cy="128" r="96"/>
<path class="st2" d="M214.2,170.4L159.9,137c-0.9-0.6-2-1-3.1-1.1l-22.9-3.1c-3.5-0.5-6.9,1.4-8.3,4.7l-13.7,30.7
	c-1.3,2.9-0.8,6.3,1.4,8.7l18.8,20.3c1.7,1.9,2.5,4.5,2,7l-3.9,19.8"/>
<path class="st2" d="M65,55.6l-9,21.2c-0.8,1.9-0.8,4-0.1,5.9l11.5,30.6c0.9,2.6,3.1,4.5,5.8,5.1l21.4,4.6c2.4,0.5,4.4,2.1,5.5,4.3
	l3.8,7.9c1.4,2.7,4.1,4.5,7.2,4.5h13.5"/>
<path class="st2" d="M152.5,35.1l9.3,16.8c1.8,3.2,1.1,7.3-1.6,9.8L133.3,86c-0.5,0.4-1,0.8-1.5,1.1l-12.3,6.8c-1.2,0.6-2.5,1-3.8,1
	H94.3c-3.2,0-6.1,1.9-7.4,4.9l-8.3,19.7"/>
</svg>
