<svg id="Layer_1" data-name="Layer 1" xmlns="http://www.w3.org/2000/svg" xmlns:xlink="http://www.w3.org/1999/xlink" viewBox="0 0 28.89 28.42"><defs><style>.cls-1{fill:url(#linear-gradient);}.cls-2{clip-path:url(#clip-path);}.cls-3{fill:url(#radial-gradient);}</style><linearGradient id="linear-gradient" x1="12" y1="1.32" x2="12" y2="1.23" gradientUnits="userSpaceOnUse"><stop offset="0" stop-color="#fff"/><stop offset="1"/></linearGradient><clipPath id="clip-path" transform="translate(2.38 1.19)"><path class="cls-1" d="M8.75,13A2.25,2.25,0,0,1,11,15.25v3.5A2.25,2.25,0,0,1,8.75,21H5.25A2.25,2.25,0,0,1,3,18.75v-3.5A2.25,2.25,0,0,1,5.25,13Zm10,0A2.25,2.25,0,0,1,21,15.25v3.5A2.25,2.25,0,0,1,18.75,21h-3.5A2.25,2.25,0,0,1,13,18.75v-3.5A2.25,2.25,0,0,1,15.25,13Zm-10,1.5H5.25a.76.76,0,0,0-.75.75v3.5a.76.76,0,0,0,.75.75h3.5a.76.76,0,0,0,.75-.75v-3.5A.76.76,0,0,0,8.75,14.5Zm10,0h-3.5a.76.76,0,0,0-.75.75v3.5a.76.76,0,0,0,.75.75h3.5a.76.76,0,0,0,.75-.75v-3.5A.76.76,0,0,0,18.75,14.5ZM8.75,3A2.25,2.25,0,0,1,11,5.25v3.5A2.25,2.25,0,0,1,8.75,11H5.25A2.25,2.25,0,0,1,3,8.75V5.25A2.25,2.25,0,0,1,5.25,3Zm10,0A2.25,2.25,0,0,1,21,5.25v3.5A2.25,2.25,0,0,1,18.75,11h-3.5A2.25,2.25,0,0,1,13,8.75V5.25A2.25,2.25,0,0,1,15.25,3Zm-10,1.5H5.25a.76.76,0,0,0-.75.75v3.5a.76.76,0,0,0,.75.75h3.5a.76.76,0,0,0,.75-.75V5.25A.76.76,0,0,0,8.75,4.5Zm10,0h-3.5a.76.76,0,0,0-.75.75v3.5a.76.76,0,0,0,.75.75h3.5a.76.76,0,0,0,.75-.75V5.25A.76.76,0,0,0,18.75,4.5Z"/></clipPath><radialGradient id="radial-gradient" cx="-325.23" cy="254.68" r="6.2" gradientTransform="matrix(5, 0, 0, -5, 1632, 1266.38)" gradientUnits="userSpaceOnUse"><stop offset="0" stop-color="#fd5"/><stop offset="0.33" stop-color="#ff543f"/><stop offset="0.35" stop-color="#fc5245"/><stop offset="0.5" stop-color="#e64771"/><stop offset="0.64" stop-color="#d53e91"/><stop offset="0.76" stop-color="#cc39a4"/><stop offset="0.84" stop-color="#c837ab"/></radialGradient></defs><path class="cls-1" d="M8.75,13A2.25,2.25,0,0,1,11,15.25v3.5A2.25,2.25,0,0,1,8.75,21H5.25A2.25,2.25,0,0,1,3,18.75v-3.5A2.25,2.25,0,0,1,5.25,13Zm10,0A2.25,2.25,0,0,1,21,15.25v3.5A2.25,2.25,0,0,1,18.75,21h-3.5A2.25,2.25,0,0,1,13,18.75v-3.5A2.25,2.25,0,0,1,15.25,13Zm-10,1.5H5.25a.76.76,0,0,0-.75.75v3.5a.76.76,0,0,0,.75.75h3.5a.76.76,0,0,0,.75-.75v-3.5A.76.76,0,0,0,8.75,14.5Zm10,0h-3.5a.76.76,0,0,0-.75.75v3.5a.76.76,0,0,0,.75.75h3.5a.76.76,0,0,0,.75-.75v-3.5A.76.76,0,0,0,18.75,14.5ZM8.75,3A2.25,2.25,0,0,1,11,5.25v3.5A2.25,2.25,0,0,1,8.75,11H5.25A2.25,2.25,0,0,1,3,8.75V5.25A2.25,2.25,0,0,1,5.25,3Zm10,0A2.25,2.25,0,0,1,21,5.25v3.5A2.25,2.25,0,0,1,18.75,11h-3.5A2.25,2.25,0,0,1,13,8.75V5.25A2.25,2.25,0,0,1,15.25,3Zm-10,1.5H5.25a.76.76,0,0,0-.75.75v3.5a.76.76,0,0,0,.75.75h3.5a.76.76,0,0,0,.75-.75V5.25A.76.76,0,0,0,8.75,4.5Zm10,0h-3.5a.76.76,0,0,0-.75.75v3.5a.76.76,0,0,0,.75.75h3.5a.76.76,0,0,0,.75-.75V5.25A.76.76,0,0,0,18.75,4.5Z" transform="translate(2.38 1.19)"/><g class="cls-2"><path class="cls-3" d="M-2.38,4.13V17.05a5.33,5.33,0,0,0,5.32,5.33H4.46V25a2.27,2.27,0,0,0,3.78,1.71l4.89-4.28h8a5.33,5.33,0,0,0,5.33-5.33V4.13a5.33,5.33,0,0,0-5.33-5.32H2.94A5.32,5.32,0,0,0-2.38,4.13Z" transform="translate(2.38 1.19)"/></g></svg>