<?xml version="1.0" encoding="UTF-8" standalone="no"?> <svg xmlns="http://www.w3.org/2000/svg" xmlns:xlink="http://www.w3.org/1999/xlink" viewBox="0 0 64 64"><defs><style>.cls-1{fill:url(#linear-gradient);}.cls-2{fill:url(#linear-gradient-2);}.cls-3{fill:url(#linear-gradient-3);}.cls-4{fill:url(#linear-gradient-4);}</style><linearGradient id="linear-gradient" x1="2.5" y1="15.3" x2="27.52" y2="15.3" gradientUnits="userSpaceOnUse"><stop offset="0" stop-color="#17a6d7"/><stop offset="1" stop-color="#9d31fe"/></linearGradient><linearGradient id="linear-gradient-2" x1="36.1" y1="15.3" x2="61.12" y2="15.3" xlink:href="#linear-gradient"/><linearGradient id="linear-gradient-3" y1="48.7" x2="27.52" y2="48.7" xlink:href="#linear-gradient"/><linearGradient id="linear-gradient-4" x1="36.1" y1="48.7" x2="61.12" y2="48.7" xlink:href="#linear-gradient"/></defs><g id="Layer_50" data-name="Layer 50"><path class="cls-1" d="M26,2.5H4A1.5,1.5,0,0,0,2.5,4V26.6A1.5,1.5,0,0,0,4,28.1H26a1.5,1.5,0,0,0,1.5-1.5V4A1.5,1.5,0,0,0,26,2.5Zm-1.5,22.6H5.5V5.5h19Z"/><path class="cls-2" d="M59.62,2.5h-22A1.5,1.5,0,0,0,36.1,4V26.6a1.5,1.5,0,0,0,1.5,1.5h22a1.5,1.5,0,0,0,1.5-1.5V4A1.5,1.5,0,0,0,59.62,2.5Zm-1.5,22.6h-19V5.5h19Z"/><path class="cls-3" d="M26,35.9H4a1.5,1.5,0,0,0-1.5,1.5V60A1.5,1.5,0,0,0,4,61.5H26a1.5,1.5,0,0,0,1.5-1.5V37.4A1.5,1.5,0,0,0,26,35.9Zm-1.5,22.6H5.5V38.9h19Z"/><path class="cls-4" d="M59.62,35.9h-22a1.5,1.5,0,0,0-1.5,1.5V60a1.5,1.5,0,0,0,1.5,1.5h22a1.5,1.5,0,0,0,1.5-1.5V37.4A1.5,1.5,0,0,0,59.62,35.9Zm-1.5,22.6h-19V38.9h19Z"/></g></svg>